# xmcd
#
# Track frame offsets:
#	150
#	21440
#	47396
#	78825
#	113128
#	130532
#	149688
#	172604
#	198219
#	214505
#	233078
#	259242
#
# Disc length: 3623 seconds
#
# Revision: 0
# Processed by: cddbd v1.5.2PL0 Copyright (c) Steve Scherf et al.
# Submitted via: dBpowerAMP V4.0
#
DISCID=950e250c
DTITLE=Johnny Nitro and the Doorslammers - Trouble
DYEAR=1900
DGENRE=Blues
TTITLE0=7 Nights to Rock
TTITLE1=Nobody Else's Arms
TTITLE2=Trouble
TTITLE3=Somebody Loan Me a Dime
TTITLE4=I'm Not Giving Up on You
TTITLE5=Flame Out
TTITLE6=She Caught the Katie
TTITLE7=Night Train
TTITLE8=Try me, Try me
TTITLE9=Tush
TTITLE10=Blue Monday
TTITLE11=Money
EXTD=Trouble
EXTT0=
EXTT1=
EXTT2=
EXTT3=
EXTT4=
EXTT5=
EXTT6=
EXTT7=
EXTT8=
EXTT9=
EXTT10=
EXTT11=
PLAYORDER=
